HIERARCHY
ROOT Hips
{
  OFFSET 196.326 95.9168 97.7182
  CHANNELS 6 Xposition Yposition Zposition Zrotation Xrotation Yrotation
  JOINT LeftUpLeg
  {
    OFFSET 8.64259 1.95398 -2.38835
    CHANNELS 3 Zrotation Xrotation Yrotation
    JOINT LeftLeg
    {
      OFFSET 43.7702 0 0
      CHANNELS 3 Zrotation Xrotation Yrotation
      JOINT LeftFoot
      {
        OFFSET 40.6238 0 0
        CHANNELS 3 Zrotation Xrotation Yrotation
        JOINT LeftToeBase
        {
          OFFSET 12.7242 0 0
          CHANNELS 3 Zrotation Xrotation Yrotation
          End Site
          {
            OFFSET 0 0 0
          }
        }
      }
    }
  }
  JOINT RightUpLeg
  {
    OFFSET -8.2249 1.95398 -2.59336
    CHANNELS 3 Zrotation Xrotation Yrotation
    JOINT RightLeg
    {
      OFFSET 43.5653 0 0
      CHANNELS 3 Zrotation Xrotation Yrotation
      JOINT RightFoot
      {
        OFFSET 40.6238 0 0
        CHANNELS 3 Zrotation Xrotation Yrotation
        JOINT RightToeBase
        {
          OFFSET 12.7242 0 0
          CHANNELS 3 Zrotation Xrotation Yrotation
          End Site
          {
            OFFSET 0 0 0
          }
        }
      }
    }
  }
  JOINT Spine
  {
    OFFSET 0.165834 0.87714 6.61349
    CHANNELS 3 Zrotation Xrotation Yrotation
    JOINT Spine1
    {
      OFFSET 7.38963 1.71661e-005 0
      CHANNELS 3 Zrotation Xrotation Yrotation
      JOINT Spine2
      {
        OFFSET 11.9445 1.14441e-005 0
        CHANNELS 3 Zrotation Xrotation Yrotation
        JOINT Spine3
        {
          OFFSET 14.7254 4.19617e-005 0
          CHANNELS 3 Zrotation Xrotation Yrotation
          JOINT Spine4
          {
            OFFSET 10.9679 0 0
            CHANNELS 3 Zrotation Xrotation Yrotation
            JOINT RightShoulder
            {
              OFFSET 2.46616 -1.6653 3.69651
              CHANNELS 3 Zrotation Xrotation Yrotation
              JOINT RightArm
              {
                OFFSET 13.0012 0 0
                CHANNELS 3 Zrotation Xrotation Yrotation
                JOINT RightForeArm
                {
                  OFFSET 28.7848 1.52588e-005 0
                  CHANNELS 3 Zrotation Xrotation Yrotation
                  JOINT RightHand
                  {
                    OFFSET 26.5688 1.52588e-005 0
                    CHANNELS 3 Zrotation Xrotation Yrotation
                    End Site
                    {
                      OFFSET 0 0 0
                    }
                  }
                }
              }
            }
            JOINT LeftShoulder
            {
              OFFSET 2.38034 -1.29275 -3.75231
              CHANNELS 3 Zrotation Xrotation Yrotation
              JOINT LeftArm
              {
                OFFSET 16.3182 6.10351e-005 0
                CHANNELS 3 Zrotation Xrotation Yrotation
                JOINT LeftForeArm
                {
                  OFFSET 27.0901 0 0
                  CHANNELS 3 Zrotation Xrotation Yrotation
                  JOINT LeftHand
                  {
                    OFFSET 24.5451 1.52588e-005 0
                    CHANNELS 3 Zrotation Xrotation Yrotation
                    End Site
                    {
                      OFFSET 0 0 0
                    }
                  }
                }
              }
            }
            JOINT Neck
            {
              OFFSET 5.0226 -0.0266342 0
              CHANNELS 3 Zrotation Xrotation Yrotation
              JOINT Head
              {
                OFFSET 6.69363 2.86102e-005 0
                CHANNELS 3 Zrotation Xrotation Yrotation
                End Site
                {
                  OFFSET 0 0 0
                }
              }
            }
          }
        }
      }
    }
  }
}
MOTION
Frames:	7
Frame Time:	0.0416667
-259.022 90.5573 -256.827 90.7835 -45.9673 91.1756 -165.14 -8.62245 87.0687 -17.7245 11.456 -6.16755 58.1519 15.0127 29.6327 67.7961 32.7834 -18.3908 -173.331 43.51 98.8879 -39.1658 4.26248 -5.3494 74.5958 -1.81264 -0.885772 45.5011 2.26039 14.4752 0.275431 7.38218 -89.3149 12.103 0.871341 1.27097 0.431794 0.926439 1.23139 -22.0992 0.44915 1.47405 -2.08653 0.449109 1.47403 80.9324 -53.3757 -113.254 34.4173 -5.52111 31.9723 -176.796 -29.1964 -157.374 -68.6207 -17.7716 25.2517 -97.5876 -38.6207 63.2462 -20.449 -3.08045 -7.12263 12.8625 -3.3324 -93.7167 20.2708 2.10449 6.56136 10.1824 1.33121 -4.54243 0.577779 2.44714 1.73067 
-256.718 87.2323 -254.518 93.4194 -40.5177 90.2125 -166.33 -8.73091 85.9223 -27.6229 12.3898 -5.86369 60.0815 19.4573 34.4807 67.3776 35.1458 -12.4401 -172.138 41.3484 93.315 -29.8228 2.92357 -5.29888 71.5423 -1.90628 -0.904794 48.1552 2.94789 16.0839 -0.186528 7.68109 -89.1885 11.5077 0.00837999 1.61479 -0.16434 0.0794333 1.61286 -22.6913 -0.477241 1.5427 -2.67861 -0.477245 1.5427 81.8275 -54.1714 -111.694 33.9833 -6.43703 26.233 -176.208 -31.9078 -160.259 -70.6465 -17.5473 24.2245 -100.028 -40.0456 59.914 -22.2729 0.409495 -7.11702 10.6443 -3.26418 -82.2627 18.6231 1.65423 5.03371 12.1243 0.353567 -4.13493 -0.183547 1.46296 1.89176 
-251.94 86.4081 -250.482 92.172 -31.3461 88.781 -169.278 -6.42383 88.6485 -36.8645 20.6121 -2.94781 60.0041 12.048 24.8786 71.8736 40.3822 -9.86694 -175.108 38.8677 89.4666 -25.9798 6.04243 -3.41124 70.3565 -2.51752 -1.26857 46.7551 2.68335 15.7136 -1.22721 7.591 -89.4253 11.7085 -2.17092 1.37601 0.0383609 -2.10825 1.47022 -22.5089 -2.48408 0.659703 -2.49624 -2.4841 0.659691 80.8484 -55.514 -112.615 31.2787 -8.7569 21.3898 -169.249 -41.5138 -157.934 -84.583 -12.3874 10.3331 -100.995 -40.6018 58.6319 -25.1017 3.38027 -6.81823 15.0754 3.74745 -67.2987 14.344 1.2553 4.76091 13.954 0.705238 -2.70388 -1.45954 1.47496 1.85839 
-243.939 86.4557 -244.666 88.7544 -28.1077 89.9821 -170.803 -3.85184 94.1285 -40.9302 24.4036 -0.0381849 48.2736 -4.69397 4.95547 85.5938 53.7814 -8.40859 -177.226 41.0249 91.4393 -33.6984 3.92024 -1.80882 62.7736 -0.909945 -0.361734 50.8888 2.64339 9.5695 -1.70606 7.28679 -90.0883 12.3128 -3.43216 0.215955 0.646374 -3.41932 0.366972 -21.9243 -3.33822 -0.826742 -1.91169 -3.33821 -0.826737 80.5454 -55.9306 -112.893 27.7057 -11.687 15.57 -123.299 -63.0875 -121.733 -93.037 15.2943 -18.361 -101.007 -40.7706 58.6892 -26.9458 7.96751 -6.50881 12.4291 11.8698 -47.518 17.1981 1.57678 5.23498 15.2697 1.97228 -1.27366 -2.4888 2.37592 3.02503 
-236.591 86.2382 -239.176 87.6424 -31.5415 90.9261 -173.945 2.97073 94.989 -53.1809 25.5015 1.09076 32.7704 -15.151 -1.80286 26.4209 -1.38769 -8.60296 -178.282 42.383 95.4915 -43.2692 5.8521 -1.34205 61.3218 -0.543974 -0.17 41.9235 1.86362 19.681 -1.40555 7.38167 -90.4776 12.1054 -3.01981 -0.620381 0.437873 -3.04417 -0.486763 -22.1196 -2.69365 -1.49985 -2.10698 -2.69367 -1.49985 80.4198 -55.4311 -113.244 24.7818 -13.0966 8.16681 -23.3106 -33.0631 -47.4088 -47.0133 22.7034 -55.9493 -103.366 -41.3647 55.2942 -27.0965 8.71712 -4.10499 5.35202 13.1569 -30.3807 15.7065 1.43272 5.18304 18.0062 3.20627 0.772039 -2.83275 2.95509 2.30148 
-230.519 86.5665 -234.423 90.337 -36.1092 92.9171 -173.861 15.5614 95.2388 -74.1036 18.6166 0.819273 34.7732 -13.1798 0.290675 22.8137 -5.37994 -6.23702 -177.109 37.9067 99.4188 -48.6552 5.43323 -2.86067 68.0347 -2.76334 -1.4714 31.5793 -0.620051 20.4208 -0.823427 7.74203 -90.5668 11.3816 -1.90279 -0.936827 -0.288253 -1.94218 -0.852158 -22.8281 -1.5333 -1.46542 -2.81549 -1.5333 -1.46543 79.4974 -53.3021 -115.332 23.1061 -12.7699 0.529391 -3.18088 -7.69897 -52.1539 -23.4465 1.93151 -20.4642 -104.349 -42.7699 54.4784 -28.5682 7.90481 0.451859 3.35095 15.0405 -22.3467 13.4081 1.54763 7.34606 18.8834 3.62656 1.85283 -2.39677 3.03901 2.37459 
-224.661 88.9165 -229.189 89.0959 -38.853 91.273 -172.453 31.9653 96.0715 -85.806 18.2771 0.53883 34.9962 -13.2438 2.45034 29.8158 1.90215 -8.70591 -176.302 31.9494 100.083 -46.0899 5.19329 -3.59492 70.7943 -4.0246 -2.06113 30.9409 -0.855984 22.2516 -0.268292 7.73704 -90.4889 11.3939 -0.761986 -0.898098 -0.277075 -0.80078 -0.863705 -22.8108 -0.456868 -1.08558 -2.79816 -0.456853 -1.08558 80.9432 -50.5379 -114.291 21.2969 -12.8567 -6.20636 -5.2844 -8.11458 -65.7227 -21.9755 -0.471697 -2.86224 -103.942 -42.872 55.1443 -30.9006 7.85155 6.58151 2.31952 13.9919 -20.6698 15.8945 2.03285 8.79547 19.2179 2.60236 1.78903 -2.27766 2.09724 3.23889 
